<mxfile host="app.diagrams.net" modified="2023-06-01T07:34:52.081Z" agent="Mozilla/5.0 (Windows NT 10.0; Win64; x64) AppleWebKit/537.36 (KHTML, like Gecko) Chrome/113.0.0.0 Safari/537.36" etag="A0cYqaChjd0robor5lqa" version="21.3.4" type="device">
  <diagram name="Page-1" id="LeIadKJxTqsovaH-AV-b">
    <mxGraphModel dx="2524" dy="788" grid="1" gridSize="10" guides="1" tooltips="1" connect="1" arrows="1" fold="1" page="1" pageScale="1" pageWidth="850" pageHeight="1100" math="0" shadow="0">
      <root>
        <mxCell id="0" />
        <mxCell id="1" parent="0" />
        <mxCell id="7aymuwifdBY-bMIIop5M-60" value="data collection" style="swimlane;whiteSpace=wrap;html=1;" parent="1" vertex="1">
          <mxGeometry x="-580" y="110" width="340" height="340" as="geometry" />
        </mxCell>
        <mxCell id="7aymuwifdBY-bMIIop5M-21" value="Sensor Logger&lt;br&gt;(App on phone)" style="rounded=1;whiteSpace=wrap;html=1;" parent="7aymuwifdBY-bMIIop5M-60" vertex="1">
          <mxGeometry x="20" y="150" width="120" height="50" as="geometry" />
        </mxCell>
        <mxCell id="7aymuwifdBY-bMIIop5M-22" value="protocol" style="rounded=1;whiteSpace=wrap;html=1;align=left;" parent="7aymuwifdBY-bMIIop5M-60" vertex="1">
          <mxGeometry x="31.25" y="30" width="97.5" height="80" as="geometry" />
        </mxCell>
        <mxCell id="7aymuwifdBY-bMIIop5M-23" value="performs action&amp;nbsp;" style="endArrow=classic;html=1;rounded=0;entryX=0.5;entryY=0;entryDx=0;entryDy=0;exitX=0.5;exitY=1;exitDx=0;exitDy=0;" parent="7aymuwifdBY-bMIIop5M-60" source="7aymuwifdBY-bMIIop5M-22" target="7aymuwifdBY-bMIIop5M-21" edge="1">
          <mxGeometry x="-0.3333" width="50" height="50" relative="1" as="geometry">
            <mxPoint x="80" y="120" as="sourcePoint" />
            <mxPoint x="80" y="150" as="targetPoint" />
            <mxPoint as="offset" />
          </mxGeometry>
        </mxCell>
        <mxCell id="7aymuwifdBY-bMIIop5M-25" value="collector" style="shape=umlActor;verticalLabelPosition=bottom;verticalAlign=top;html=1;outlineConnect=0;fillColor=#f8cecc;strokeColor=#b85450;" parent="7aymuwifdBY-bMIIop5M-60" vertex="1">
          <mxGeometry x="90" y="42.5" width="20" height="45" as="geometry" />
        </mxCell>
        <mxCell id="7aymuwifdBY-bMIIop5M-31" value="Sensor Logger&lt;br&gt;(App on phone)" style="rounded=1;whiteSpace=wrap;html=1;" parent="7aymuwifdBY-bMIIop5M-60" vertex="1">
          <mxGeometry x="155" y="150" width="120" height="50" as="geometry" />
        </mxCell>
        <mxCell id="7aymuwifdBY-bMIIop5M-32" value="protocol" style="rounded=1;whiteSpace=wrap;html=1;align=left;" parent="7aymuwifdBY-bMIIop5M-60" vertex="1">
          <mxGeometry x="167.5" y="30" width="97.5" height="80" as="geometry" />
        </mxCell>
        <mxCell id="7aymuwifdBY-bMIIop5M-33" value="performs action&amp;nbsp;" style="endArrow=classic;html=1;rounded=0;entryX=0.5;entryY=0;entryDx=0;entryDy=0;exitX=0.5;exitY=1;exitDx=0;exitDy=0;" parent="7aymuwifdBY-bMIIop5M-60" source="7aymuwifdBY-bMIIop5M-32" target="7aymuwifdBY-bMIIop5M-31" edge="1">
          <mxGeometry x="-0.3333" width="50" height="50" relative="1" as="geometry">
            <mxPoint x="215" y="120" as="sourcePoint" />
            <mxPoint x="215" y="150" as="targetPoint" />
            <mxPoint as="offset" />
          </mxGeometry>
        </mxCell>
        <mxCell id="7aymuwifdBY-bMIIop5M-35" value="collector" style="shape=umlActor;verticalLabelPosition=bottom;verticalAlign=top;html=1;outlineConnect=0;fillColor=#d5e8d4;strokeColor=#82b366;" parent="7aymuwifdBY-bMIIop5M-60" vertex="1">
          <mxGeometry x="220" y="42.5" width="20" height="45" as="geometry" />
        </mxCell>
        <mxCell id="7aymuwifdBY-bMIIop5M-36" value="&lt;br&gt;&lt;span style=&quot;color: rgb(0, 0, 0); font-family: Helvetica; font-size: 12px; font-style: normal; font-variant-ligatures: normal; font-variant-caps: normal; font-weight: 400; letter-spacing: normal; orphans: 2; text-align: center; text-indent: 0px; text-transform: none; widows: 2; word-spacing: 0px; -webkit-text-stroke-width: 0px; background-color: rgb(251, 251, 251); text-decoration-thickness: initial; text-decoration-style: initial; text-decoration-color: initial; float: none; display: inline !important;&quot;&gt;OneDrive&lt;/span&gt;&lt;br&gt;" style="shape=cylinder3;whiteSpace=wrap;html=1;boundedLbl=1;backgroundOutline=1;size=15;" parent="7aymuwifdBY-bMIIop5M-60" vertex="1">
          <mxGeometry x="120" y="240" width="60" height="80" as="geometry" />
        </mxCell>
        <mxCell id="7aymuwifdBY-bMIIop5M-62" value="&lt;b&gt;&lt;font style=&quot;font-size: 22px;&quot;&gt;...&lt;/font&gt;&lt;/b&gt;" style="text;html=1;strokeColor=none;fillColor=none;align=center;verticalAlign=middle;whiteSpace=wrap;rounded=0;" parent="7aymuwifdBY-bMIIop5M-60" vertex="1">
          <mxGeometry x="280" y="130" width="60" height="30" as="geometry" />
        </mxCell>
        <mxCell id="7aymuwifdBY-bMIIop5M-65" value="" style="endArrow=classic;html=1;rounded=0;exitX=0.5;exitY=1;exitDx=0;exitDy=0;entryX=0.5;entryY=0;entryDx=0;entryDy=0;entryPerimeter=0;edgeStyle=orthogonalEdgeStyle;" parent="7aymuwifdBY-bMIIop5M-60" source="7aymuwifdBY-bMIIop5M-62" target="7aymuwifdBY-bMIIop5M-36" edge="1">
          <mxGeometry width="50" height="50" relative="1" as="geometry">
            <mxPoint x="470" y="460" as="sourcePoint" />
            <mxPoint x="520" y="410" as="targetPoint" />
            <Array as="points">
              <mxPoint x="310" y="220" />
              <mxPoint x="150" y="220" />
            </Array>
          </mxGeometry>
        </mxCell>
        <mxCell id="7aymuwifdBY-bMIIop5M-105" value="export data" style="endArrow=classic;html=1;rounded=0;entryX=0.5;entryY=0;entryDx=0;entryDy=0;entryPerimeter=0;exitX=0.433;exitY=1.08;exitDx=0;exitDy=0;exitPerimeter=0;edgeStyle=orthogonalEdgeStyle;" parent="7aymuwifdBY-bMIIop5M-60" source="7aymuwifdBY-bMIIop5M-21" target="7aymuwifdBY-bMIIop5M-36" edge="1">
          <mxGeometry x="0.6491" y="-10" width="50" height="50" relative="1" as="geometry">
            <mxPoint x="980" y="350" as="sourcePoint" />
            <mxPoint x="1030" y="300" as="targetPoint" />
            <mxPoint x="10" y="-10" as="offset" />
          </mxGeometry>
        </mxCell>
        <mxCell id="7aymuwifdBY-bMIIop5M-106" value="" style="endArrow=classic;html=1;rounded=0;exitX=0.5;exitY=1;exitDx=0;exitDy=0;entryX=0.5;entryY=0;entryDx=0;entryDy=0;entryPerimeter=0;edgeStyle=orthogonalEdgeStyle;" parent="7aymuwifdBY-bMIIop5M-60" source="7aymuwifdBY-bMIIop5M-31" target="7aymuwifdBY-bMIIop5M-36" edge="1">
          <mxGeometry width="50" height="50" relative="1" as="geometry">
            <mxPoint x="980" y="350" as="sourcePoint" />
            <mxPoint x="1030" y="300" as="targetPoint" />
          </mxGeometry>
        </mxCell>
        <mxCell id="7aymuwifdBY-bMIIop5M-63" value="data cleaning / preprocessing" style="swimlane;whiteSpace=wrap;html=1;startSize=40;" parent="1" vertex="1">
          <mxGeometry x="-150" y="110" width="140" height="340" as="geometry" />
        </mxCell>
        <mxCell id="7aymuwifdBY-bMIIop5M-7" value="blam&lt;br&gt;(Data cutting / Preprocessing)" style="rounded=1;whiteSpace=wrap;html=1;" parent="7aymuwifdBY-bMIIop5M-63" vertex="1">
          <mxGeometry x="10" y="140" width="120" height="60" as="geometry" />
        </mxCell>
        <mxCell id="7aymuwifdBY-bMIIop5M-9" value="interacts" style="endArrow=classic;html=1;rounded=0;" parent="7aymuwifdBY-bMIIop5M-63" source="7aymuwifdBY-bMIIop5M-17" target="7aymuwifdBY-bMIIop5M-7" edge="1">
          <mxGeometry x="0.2727" width="50" height="50" relative="1" as="geometry">
            <mxPoint x="70" y="87.5" as="sourcePoint" />
            <mxPoint x="180" y="397.5" as="targetPoint" />
            <mxPoint as="offset" />
          </mxGeometry>
        </mxCell>
        <mxCell id="7aymuwifdBY-bMIIop5M-12" value="preprocessed data" style="endArrow=classic;html=1;rounded=0;exitX=0.5;exitY=1;exitDx=0;exitDy=0;entryX=0.5;entryY=0;entryDx=0;entryDy=0;entryPerimeter=0;" parent="7aymuwifdBY-bMIIop5M-63" source="7aymuwifdBY-bMIIop5M-7" target="7aymuwifdBY-bMIIop5M-15" edge="1">
          <mxGeometry width="50" height="50" relative="1" as="geometry">
            <mxPoint x="130" y="417.5" as="sourcePoint" />
            <mxPoint x="70" y="227.5" as="targetPoint" />
          </mxGeometry>
        </mxCell>
        <mxCell id="7aymuwifdBY-bMIIop5M-15" value="questdb" style="shape=cylinder3;whiteSpace=wrap;html=1;boundedLbl=1;backgroundOutline=1;size=15;" parent="7aymuwifdBY-bMIIop5M-63" vertex="1">
          <mxGeometry x="40" y="237.5" width="60" height="80" as="geometry" />
        </mxCell>
        <mxCell id="7aymuwifdBY-bMIIop5M-116" value="" style="edgeStyle=orthogonalEdgeStyle;rounded=0;orthogonalLoop=1;jettySize=auto;html=1;" parent="7aymuwifdBY-bMIIop5M-63" source="7aymuwifdBY-bMIIop5M-17" target="7aymuwifdBY-bMIIop5M-7" edge="1">
          <mxGeometry relative="1" as="geometry" />
        </mxCell>
        <mxCell id="7aymuwifdBY-bMIIop5M-17" value="dev" style="shape=umlActor;verticalLabelPosition=bottom;verticalAlign=top;html=1;outlineConnect=0;" parent="7aymuwifdBY-bMIIop5M-63" vertex="1">
          <mxGeometry x="57.5" y="40" width="25" height="45" as="geometry" />
        </mxCell>
        <mxCell id="7aymuwifdBY-bMIIop5M-67" value="pipeline repo" style="swimlane;whiteSpace=wrap;html=1;" parent="1" vertex="1">
          <mxGeometry x="90" y="110" width="320" height="340" as="geometry" />
        </mxCell>
        <mxCell id="7aymuwifdBY-bMIIop5M-59" value="pipeline" style="swimlane;whiteSpace=wrap;html=1;startSize=23;" parent="7aymuwifdBY-bMIIop5M-67" vertex="1">
          <mxGeometry x="10" y="30" width="300" height="270" as="geometry" />
        </mxCell>
        <mxCell id="7aymuwifdBY-bMIIop5M-38" value="stages&lt;br&gt;(different .py scripts)" style="rounded=0;whiteSpace=wrap;html=1;" parent="7aymuwifdBY-bMIIop5M-59" vertex="1">
          <mxGeometry x="10" y="160" width="120" height="60" as="geometry" />
        </mxCell>
        <mxCell id="7aymuwifdBY-bMIIop5M-39" value="DVC&lt;br&gt;(Pipeline management / file versioning)" style="ellipse;whiteSpace=wrap;html=1;" parent="7aymuwifdBY-bMIIop5M-59" vertex="1">
          <mxGeometry x="10" y="30" width="120" height="80" as="geometry" />
        </mxCell>
        <mxCell id="7aymuwifdBY-bMIIop5M-42" value="generated files from stages" style="shape=card;whiteSpace=wrap;html=1;" parent="7aymuwifdBY-bMIIop5M-59" vertex="1">
          <mxGeometry x="220" y="120" width="70" height="110" as="geometry" />
        </mxCell>
        <mxCell id="7aymuwifdBY-bMIIop5M-47" value="executes &lt;br&gt;stages" style="endArrow=classic;html=1;rounded=0;entryX=0.5;entryY=0;entryDx=0;entryDy=0;exitX=0.5;exitY=1;exitDx=0;exitDy=0;" parent="7aymuwifdBY-bMIIop5M-59" source="7aymuwifdBY-bMIIop5M-39" target="7aymuwifdBY-bMIIop5M-38" edge="1">
          <mxGeometry width="50" height="50" relative="1" as="geometry">
            <mxPoint x="50" y="90" as="sourcePoint" />
            <mxPoint x="100" y="40" as="targetPoint" />
          </mxGeometry>
        </mxCell>
        <mxCell id="7aymuwifdBY-bMIIop5M-48" value="Processes data" style="endArrow=classic;html=1;rounded=0;exitX=0.25;exitY=1;exitDx=0;exitDy=0;edgeStyle=orthogonalEdgeStyle;entryX=0.75;entryY=1;entryDx=0;entryDy=0;" parent="7aymuwifdBY-bMIIop5M-59" source="7aymuwifdBY-bMIIop5M-38" target="7aymuwifdBY-bMIIop5M-38" edge="1">
          <mxGeometry width="50" height="50" relative="1" as="geometry">
            <mxPoint x="50" y="90" as="sourcePoint" />
            <mxPoint x="170" y="200" as="targetPoint" />
            <Array as="points">
              <mxPoint x="40" y="260" />
              <mxPoint x="100" y="260" />
            </Array>
          </mxGeometry>
        </mxCell>
        <mxCell id="7aymuwifdBY-bMIIop5M-49" value="creates&amp;nbsp;&lt;br&gt;files" style="endArrow=classic;html=1;rounded=0;entryX=0;entryY=0;entryDx=0;entryDy=30;entryPerimeter=0;exitX=1;exitY=0;exitDx=0;exitDy=0;" parent="7aymuwifdBY-bMIIop5M-59" source="7aymuwifdBY-bMIIop5M-38" target="7aymuwifdBY-bMIIop5M-42" edge="1">
          <mxGeometry width="50" height="50" relative="1" as="geometry">
            <mxPoint x="50" y="90" as="sourcePoint" />
            <mxPoint x="100" y="40" as="targetPoint" />
          </mxGeometry>
        </mxCell>
        <mxCell id="7aymuwifdBY-bMIIop5M-53" value="read file&lt;br&gt;(if required)" style="endArrow=classic;html=1;rounded=0;exitX=0;exitY=1;exitDx=0;exitDy=0;exitPerimeter=0;entryX=1;entryY=1;entryDx=0;entryDy=0;" parent="7aymuwifdBY-bMIIop5M-59" source="7aymuwifdBY-bMIIop5M-42" target="7aymuwifdBY-bMIIop5M-38" edge="1">
          <mxGeometry width="50" height="50" relative="1" as="geometry">
            <mxPoint x="50" y="-10" as="sourcePoint" />
            <mxPoint x="100" y="-60" as="targetPoint" />
          </mxGeometry>
        </mxCell>
        <mxCell id="7aymuwifdBY-bMIIop5M-71" value="dvc command&lt;br&gt;- dvc repro&lt;br&gt;- dvc exp&amp;nbsp; &amp;nbsp;" style="rounded=1;whiteSpace=wrap;html=1;" parent="7aymuwifdBY-bMIIop5M-59" vertex="1">
          <mxGeometry x="160" y="40" width="120" height="60" as="geometry" />
        </mxCell>
        <mxCell id="7aymuwifdBY-bMIIop5M-72" value="" style="endArrow=classic;html=1;rounded=0;exitX=0;exitY=0.5;exitDx=0;exitDy=0;entryX=1;entryY=0.5;entryDx=0;entryDy=0;" parent="7aymuwifdBY-bMIIop5M-59" source="7aymuwifdBY-bMIIop5M-71" target="7aymuwifdBY-bMIIop5M-39" edge="1">
          <mxGeometry width="50" height="50" relative="1" as="geometry">
            <mxPoint x="390" y="-80" as="sourcePoint" />
            <mxPoint x="440" y="-130" as="targetPoint" />
          </mxGeometry>
        </mxCell>
        <mxCell id="7aymuwifdBY-bMIIop5M-76" value="s3 &lt;br&gt;storage" style="shape=cylinder3;whiteSpace=wrap;html=1;boundedLbl=1;backgroundOutline=1;size=15;" parent="1" vertex="1">
          <mxGeometry x="20" y="170" width="60" height="80" as="geometry" />
        </mxCell>
        <mxCell id="7aymuwifdBY-bMIIop5M-78" value="" style="endArrow=classic;startArrow=classic;html=1;rounded=0;exitX=1;exitY=0.5;exitDx=0;exitDy=0;exitPerimeter=0;entryX=0;entryY=0.5;entryDx=0;entryDy=0;" parent="1" source="7aymuwifdBY-bMIIop5M-76" target="7aymuwifdBY-bMIIop5M-39" edge="1">
          <mxGeometry width="50" height="50" relative="1" as="geometry">
            <mxPoint x="505" y="40" as="sourcePoint" />
            <mxPoint x="555" y="-10" as="targetPoint" />
            <Array as="points" />
          </mxGeometry>
        </mxCell>
        <mxCell id="7aymuwifdBY-bMIIop5M-81" value="" style="endArrow=classic;html=1;rounded=0;exitX=0;exitY=0.5;exitDx=0;exitDy=0;" parent="1" source="7aymuwifdBY-bMIIop5M-68" edge="1">
          <mxGeometry width="50" height="50" relative="1" as="geometry">
            <mxPoint x="645" y="70" as="sourcePoint" />
            <mxPoint x="410" y="170" as="targetPoint" />
          </mxGeometry>
        </mxCell>
        <mxCell id="7aymuwifdBY-bMIIop5M-82" value="upload data &lt;br&gt;to repo" style="edgeLabel;html=1;align=center;verticalAlign=middle;resizable=0;points=[];" parent="7aymuwifdBY-bMIIop5M-81" vertex="1" connectable="0">
          <mxGeometry x="-0.2462" y="2" relative="1" as="geometry">
            <mxPoint x="-12" y="-2" as="offset" />
          </mxGeometry>
        </mxCell>
        <mxCell id="7aymuwifdBY-bMIIop5M-83" value="results" style="endArrow=none;startArrow=classic;html=1;rounded=0;exitX=0.5;exitY=0;exitDx=0;exitDy=0;entryX=0.5;entryY=1;entryDx=0;entryDy=0;startFill=1;endFill=0;" parent="1" source="MKgZkmLSSd-rvzqlxQ6O-1" target="7aymuwifdBY-bMIIop5M-69" edge="1">
          <mxGeometry x="-0.3684" width="50" height="50" relative="1" as="geometry">
            <mxPoint x="530" y="450" as="sourcePoint" />
            <mxPoint x="655" y="300" as="targetPoint" />
            <mxPoint as="offset" />
          </mxGeometry>
        </mxCell>
        <mxCell id="7aymuwifdBY-bMIIop5M-87" value="&lt;span style=&quot;color: rgb(0, 0, 0); font-family: Helvetica; font-size: 11px; font-style: normal; font-variant-ligatures: normal; font-variant-caps: normal; font-weight: 400; letter-spacing: normal; orphans: 2; text-align: center; text-indent: 0px; text-transform: none; widows: 2; word-spacing: 0px; -webkit-text-stroke-width: 0px; background-color: rgb(255, 255, 255); text-decoration-thickness: initial; text-decoration-style: initial; text-decoration-color: initial; float: none; display: inline !important;&quot;&gt;pull data&amp;nbsp;&lt;/span&gt;&lt;br style=&quot;border-color: var(--border-color); color: rgb(0, 0, 0); font-family: Helvetica; font-size: 11px; font-style: normal; font-variant-ligatures: normal; font-variant-caps: normal; font-weight: 400; letter-spacing: normal; orphans: 2; text-align: center; text-indent: 0px; text-transform: none; widows: 2; word-spacing: 0px; -webkit-text-stroke-width: 0px; text-decoration-thickness: initial; text-decoration-style: initial; text-decoration-color: initial;&quot;&gt;&lt;span style=&quot;color: rgb(0, 0, 0); font-family: Helvetica; font-size: 11px; font-style: normal; font-variant-ligatures: normal; font-variant-caps: normal; font-weight: 400; letter-spacing: normal; orphans: 2; text-align: center; text-indent: 0px; text-transform: none; widows: 2; word-spacing: 0px; -webkit-text-stroke-width: 0px; background-color: rgb(255, 255, 255); text-decoration-thickness: initial; text-decoration-style: initial; text-decoration-color: initial; float: none; display: inline !important;&quot;&gt;(if required)&lt;/span&gt;" style="endArrow=classic;html=1;rounded=0;exitX=1;exitY=0.5;exitDx=0;exitDy=0;exitPerimeter=0;entryX=0;entryY=0.5;entryDx=0;entryDy=0;edgeStyle=orthogonalEdgeStyle;" parent="1" source="7aymuwifdBY-bMIIop5M-15" target="7aymuwifdBY-bMIIop5M-38" edge="1">
          <mxGeometry x="0.0805" width="50" height="50" relative="1" as="geometry">
            <mxPoint x="400" y="560" as="sourcePoint" />
            <mxPoint x="450" y="510" as="targetPoint" />
            <Array as="points">
              <mxPoint x="40" y="388" />
              <mxPoint x="40" y="330" />
            </Array>
            <mxPoint y="1" as="offset" />
          </mxGeometry>
        </mxCell>
        <mxCell id="7aymuwifdBY-bMIIop5M-95" value="API" style="swimlane;whiteSpace=wrap;html=1;" parent="1" vertex="1">
          <mxGeometry x="265" y="600" width="225" height="150" as="geometry" />
        </mxCell>
        <mxCell id="7aymuwifdBY-bMIIop5M-96" value="requires stages" style="rounded=0;whiteSpace=wrap;html=1;" parent="7aymuwifdBY-bMIIop5M-95" vertex="1">
          <mxGeometry x="10" y="50" width="120" height="90" as="geometry" />
        </mxCell>
        <mxCell id="7aymuwifdBY-bMIIop5M-115" value="feed data &lt;br&gt;through stages" style="endArrow=classic;html=1;rounded=0;exitX=1;exitY=0.25;exitDx=0;exitDy=0;edgeStyle=orthogonalEdgeStyle;entryX=1;entryY=0.75;entryDx=0;entryDy=0;" parent="7aymuwifdBY-bMIIop5M-95" source="7aymuwifdBY-bMIIop5M-96" target="7aymuwifdBY-bMIIop5M-96" edge="1">
          <mxGeometry width="50" height="50" relative="1" as="geometry">
            <mxPoint x="135" y="-140" as="sourcePoint" />
            <mxPoint x="135" y="160" as="targetPoint" />
            <Array as="points">
              <mxPoint x="130" y="80" />
              <mxPoint x="175" y="80" />
              <mxPoint x="175" y="120" />
              <mxPoint x="130" y="120" />
            </Array>
          </mxGeometry>
        </mxCell>
        <mxCell id="7aymuwifdBY-bMIIop5M-99" value="transfer of best performing pipeline" style="shape=hexagon;perimeter=hexagonPerimeter2;whiteSpace=wrap;html=1;fixedSize=1;" parent="1" vertex="1">
          <mxGeometry x="275" y="500" width="120" height="80" as="geometry" />
        </mxCell>
        <mxCell id="7aymuwifdBY-bMIIop5M-101" value="interacts" style="edgeStyle=orthogonalEdgeStyle;rounded=0;orthogonalLoop=1;jettySize=auto;html=1;exitX=0.5;exitY=0.5;exitDx=0;exitDy=0;exitPerimeter=0;entryX=1;entryY=0.5;entryDx=0;entryDy=0;" parent="1" source="7aymuwifdBY-bMIIop5M-100" target="7aymuwifdBY-bMIIop5M-99" edge="1">
          <mxGeometry relative="1" as="geometry">
            <mxPoint x="505" y="530" as="targetPoint" />
          </mxGeometry>
        </mxCell>
        <mxCell id="7aymuwifdBY-bMIIop5M-100" value="dev" style="shape=umlActor;verticalLabelPosition=bottom;verticalAlign=top;html=1;outlineConnect=0;" parent="1" vertex="1">
          <mxGeometry x="515" y="510" width="30" height="60" as="geometry" />
        </mxCell>
        <mxCell id="7aymuwifdBY-bMIIop5M-102" value="" style="endArrow=classic;html=1;rounded=0;exitX=0.5;exitY=1;exitDx=0;exitDy=0;entryX=0;entryY=0.5;entryDx=0;entryDy=0;edgeStyle=orthogonalEdgeStyle;" parent="1" source="7aymuwifdBY-bMIIop5M-59" target="7aymuwifdBY-bMIIop5M-99" edge="1">
          <mxGeometry width="50" height="50" relative="1" as="geometry">
            <mxPoint x="400" y="460" as="sourcePoint" />
            <mxPoint x="530" y="520" as="targetPoint" />
          </mxGeometry>
        </mxCell>
        <mxCell id="7aymuwifdBY-bMIIop5M-107" value="recordings" style="endArrow=classic;html=1;rounded=0;exitX=1;exitY=0.5;exitDx=0;exitDy=0;exitPerimeter=0;entryX=0;entryY=0.5;entryDx=0;entryDy=0;edgeStyle=orthogonalEdgeStyle;" parent="1" source="7aymuwifdBY-bMIIop5M-36" target="7aymuwifdBY-bMIIop5M-7" edge="1">
          <mxGeometry x="0.3775" width="50" height="50" relative="1" as="geometry">
            <mxPoint x="400" y="460" as="sourcePoint" />
            <mxPoint x="450" y="410" as="targetPoint" />
            <Array as="points">
              <mxPoint x="-200" y="390" />
              <mxPoint x="-200" y="280" />
            </Array>
            <mxPoint as="offset" />
          </mxGeometry>
        </mxCell>
        <mxCell id="7aymuwifdBY-bMIIop5M-108" value="interacts" style="endArrow=classic;startArrow=classic;html=1;rounded=0;exitX=0.5;exitY=0.5;exitDx=0;exitDy=0;exitPerimeter=0;edgeStyle=orthogonalEdgeStyle;entryX=0.5;entryY=1;entryDx=0;entryDy=0;" parent="1" source="7aymuwifdBY-bMIIop5M-100" target="MKgZkmLSSd-rvzqlxQ6O-1" edge="1">
          <mxGeometry x="0.4737" width="50" height="50" relative="1" as="geometry">
            <mxPoint x="400" y="460" as="sourcePoint" />
            <mxPoint x="620" y="530" as="targetPoint" />
            <Array as="points">
              <mxPoint x="580" y="540" />
            </Array>
            <mxPoint as="offset" />
          </mxGeometry>
        </mxCell>
        <mxCell id="7aymuwifdBY-bMIIop5M-85" value="&lt;span style=&quot;border-color: var(--border-color); color: rgb(0, 0, 0); font-family: Helvetica; font-size: 12px; font-style: normal; font-variant-ligatures: normal; font-variant-caps: normal; font-weight: 400; letter-spacing: normal; orphans: 2; text-align: center; text-indent: 0px; text-transform: none; widows: 2; word-spacing: 0px; -webkit-text-stroke-width: 0px; text-decoration-thickness: initial; text-decoration-style: initial; text-decoration-color: initial; background-color: rgb(251, 251, 251); float: none; display: inline !important;&quot;&gt;create &lt;br&gt;pull request &lt;br&gt;with results&lt;/span&gt;" style="endArrow=classic;html=1;rounded=0;exitX=0.5;exitY=1;exitDx=0;exitDy=0;entryX=1;entryY=0.75;entryDx=0;entryDy=0;edgeStyle=orthogonalEdgeStyle;" parent="1" source="7aymuwifdBY-bMIIop5M-69" target="7aymuwifdBY-bMIIop5M-67" edge="1">
          <mxGeometry x="0.5122" width="50" height="50" relative="1" as="geometry">
            <mxPoint x="650" y="60" as="sourcePoint" />
            <mxPoint x="660" y="320" as="targetPoint" />
            <mxPoint as="offset" />
          </mxGeometry>
        </mxCell>
        <mxCell id="7aymuwifdBY-bMIIop5M-109" value="&lt;span style=&quot;border-color: var(--border-color); color: rgb(0, 0, 0); font-family: Helvetica; font-size: 11px; font-style: normal; font-variant-ligatures: normal; font-variant-caps: normal; font-weight: 400; letter-spacing: normal; orphans: 2; text-align: center; text-indent: 0px; text-transform: none; widows: 2; word-spacing: 0px; -webkit-text-stroke-width: 0px; background-color: rgb(255, 255, 255); text-decoration-thickness: initial; text-decoration-style: initial; text-decoration-color: initial; float: none; display: inline !important;&quot;&gt;execute&amp;nbsp;&lt;/span&gt;&lt;br style=&quot;border-color: var(--border-color); color: rgb(0, 0, 0); font-family: Helvetica; font-size: 11px; font-style: normal; font-variant-ligatures: normal; font-variant-caps: normal; font-weight: 400; letter-spacing: normal; orphans: 2; text-align: center; text-indent: 0px; text-transform: none; widows: 2; word-spacing: 0px; -webkit-text-stroke-width: 0px; text-decoration-thickness: initial; text-decoration-style: initial; text-decoration-color: initial;&quot;&gt;&lt;span style=&quot;border-color: var(--border-color); color: rgb(0, 0, 0); font-family: Helvetica; font-size: 11px; font-style: normal; font-variant-ligatures: normal; font-variant-caps: normal; font-weight: 400; letter-spacing: normal; orphans: 2; text-align: center; text-indent: 0px; text-transform: none; widows: 2; word-spacing: 0px; -webkit-text-stroke-width: 0px; background-color: rgb(255, 255, 255); text-decoration-thickness: initial; text-decoration-style: initial; text-decoration-color: initial; float: none; display: inline !important;&quot;&gt;DVC pipeline/&lt;/span&gt;&lt;br style=&quot;border-color: var(--border-color); color: rgb(0, 0, 0); font-family: Helvetica; font-size: 11px; font-style: normal; font-variant-ligatures: normal; font-variant-caps: normal; font-weight: 400; letter-spacing: normal; orphans: 2; text-align: center; text-indent: 0px; text-transform: none; widows: 2; word-spacing: 0px; -webkit-text-stroke-width: 0px; text-decoration-thickness: initial; text-decoration-style: initial; text-decoration-color: initial;&quot;&gt;&lt;span style=&quot;border-color: var(--border-color); color: rgb(0, 0, 0); font-family: Helvetica; font-size: 11px; font-style: normal; font-variant-ligatures: normal; font-variant-caps: normal; font-weight: 400; letter-spacing: normal; orphans: 2; text-align: center; text-indent: 0px; text-transform: none; widows: 2; word-spacing: 0px; -webkit-text-stroke-width: 0px; background-color: rgb(255, 255, 255); text-decoration-thickness: initial; text-decoration-style: initial; text-decoration-color: initial; float: none; display: inline !important;&quot;&gt;get results&lt;/span&gt;" style="endArrow=classic;startArrow=classic;html=1;rounded=0;entryX=0;entryY=0.5;entryDx=0;entryDy=0;exitX=1;exitY=0.5;exitDx=0;exitDy=0;" parent="1" source="7aymuwifdBY-bMIIop5M-59" target="7aymuwifdBY-bMIIop5M-69" edge="1">
          <mxGeometry x="0.0909" width="50" height="50" relative="1" as="geometry">
            <mxPoint x="400" y="460" as="sourcePoint" />
            <mxPoint x="450" y="410" as="targetPoint" />
            <mxPoint as="offset" />
          </mxGeometry>
        </mxCell>
        <mxCell id="7aymuwifdBY-bMIIop5M-111" value="" style="endArrow=classic;html=1;rounded=0;exitX=0.5;exitY=1;exitDx=0;exitDy=0;entryX=0.5;entryY=0;entryDx=0;entryDy=0;" parent="1" source="7aymuwifdBY-bMIIop5M-99" target="7aymuwifdBY-bMIIop5M-96" edge="1">
          <mxGeometry width="50" height="50" relative="1" as="geometry">
            <mxPoint x="400" y="460" as="sourcePoint" />
            <mxPoint x="450" y="410" as="targetPoint" />
          </mxGeometry>
        </mxCell>
        <mxCell id="7aymuwifdBY-bMIIop5M-112" value="collected&lt;br&gt;data" style="endArrow=classic;html=1;rounded=0;entryX=0;entryY=0.25;entryDx=0;entryDy=0;exitX=1;exitY=0.25;exitDx=0;exitDy=0;" parent="1" source="7aymuwifdBY-bMIIop5M-88" target="7aymuwifdBY-bMIIop5M-96" edge="1">
          <mxGeometry x="-0.04" width="50" height="50" relative="1" as="geometry">
            <mxPoint x="190" y="678" as="sourcePoint" />
            <mxPoint x="280" y="673" as="targetPoint" />
            <mxPoint as="offset" />
          </mxGeometry>
        </mxCell>
        <mxCell id="7aymuwifdBY-bMIIop5M-113" value="classification" style="endArrow=classic;html=1;rounded=0;exitX=0;exitY=0.75;exitDx=0;exitDy=0;entryX=1;entryY=0.75;entryDx=0;entryDy=0;" parent="1" source="7aymuwifdBY-bMIIop5M-96" target="7aymuwifdBY-bMIIop5M-88" edge="1">
          <mxGeometry width="50" height="50" relative="1" as="geometry">
            <mxPoint x="400" y="460" as="sourcePoint" />
            <mxPoint x="450" y="410" as="targetPoint" />
          </mxGeometry>
        </mxCell>
        <mxCell id="7aymuwifdBY-bMIIop5M-118" value="app" style="swimlane;whiteSpace=wrap;html=1;" parent="1" vertex="1">
          <mxGeometry x="20" y="620" width="140" height="130" as="geometry" />
        </mxCell>
        <mxCell id="7aymuwifdBY-bMIIop5M-88" value="mobile application" style="rounded=1;whiteSpace=wrap;html=1;" parent="7aymuwifdBY-bMIIop5M-118" vertex="1">
          <mxGeometry x="10" y="30" width="120" height="90" as="geometry" />
        </mxCell>
        <mxCell id="7aymuwifdBY-bMIIop5M-89" value="user" style="shape=umlActor;verticalLabelPosition=bottom;verticalAlign=top;html=1;outlineConnect=0;" parent="7aymuwifdBY-bMIIop5M-118" vertex="1">
          <mxGeometry x="-110" y="45" width="30" height="60" as="geometry" />
        </mxCell>
        <mxCell id="7aymuwifdBY-bMIIop5M-92" value="interacts" style="endArrow=classic;startArrow=classic;html=1;rounded=0;exitX=0;exitY=0.5;exitDx=0;exitDy=0;" parent="7aymuwifdBY-bMIIop5M-118" source="7aymuwifdBY-bMIIop5M-88" target="7aymuwifdBY-bMIIop5M-89" edge="1">
          <mxGeometry width="50" height="50" relative="1" as="geometry">
            <mxPoint x="240" y="-50" as="sourcePoint" />
            <mxPoint x="290" y="-100" as="targetPoint" />
          </mxGeometry>
        </mxCell>
        <mxCell id="MKgZkmLSSd-rvzqlxQ6O-1" value="Iterative Studio" style="ellipse;whiteSpace=wrap;html=1;" vertex="1" parent="1">
          <mxGeometry x="520" y="410" width="120" height="80" as="geometry" />
        </mxCell>
        <mxCell id="MKgZkmLSSd-rvzqlxQ6O-2" value="Runner" style="swimlane;whiteSpace=wrap;html=1;" vertex="1" parent="1">
          <mxGeometry x="510" y="110" width="140" height="220" as="geometry" />
        </mxCell>
        <mxCell id="7aymuwifdBY-bMIIop5M-69" value="github runner" style="ellipse;whiteSpace=wrap;html=1;" parent="MKgZkmLSSd-rvzqlxQ6O-2" vertex="1">
          <mxGeometry x="15" y="125" width="110" height="80" as="geometry" />
        </mxCell>
        <mxCell id="7aymuwifdBY-bMIIop5M-68" value="@ git push" style="rounded=1;whiteSpace=wrap;html=1;align=center;" parent="MKgZkmLSSd-rvzqlxQ6O-2" vertex="1">
          <mxGeometry x="20" y="40" width="100" height="40" as="geometry" />
        </mxCell>
        <mxCell id="7aymuwifdBY-bMIIop5M-70" value="trigger" style="endArrow=classic;html=1;rounded=0;exitX=0.5;exitY=1;exitDx=0;exitDy=0;entryX=0.5;entryY=0;entryDx=0;entryDy=0;" parent="MKgZkmLSSd-rvzqlxQ6O-2" source="7aymuwifdBY-bMIIop5M-68" target="7aymuwifdBY-bMIIop5M-69" edge="1">
          <mxGeometry x="-0.2857" width="50" height="50" relative="1" as="geometry">
            <mxPoint x="-95" y="-70" as="sourcePoint" />
            <mxPoint x="-45" y="-120" as="targetPoint" />
            <mxPoint as="offset" />
          </mxGeometry>
        </mxCell>
      </root>
    </mxGraphModel>
  </diagram>
</mxfile>
